<?xml version="1.0" encoding="utf-8"?>
<!-- Generator: Adobe Illustrator 27.1.1, SVG Export Plug-In . SVG Version: 6.00 Build 0)  -->
<svg version="1.1" id="Calque_1" xmlns="http://www.w3.org/2000/svg" xmlns:xlink="http://www.w3.org/1999/xlink" x="0px" y="0px"
	 viewBox="0 0 269 66" style="enable-background:new 0 0 269 66;" xml:space="preserve">
<style type="text/css">
	.st0{fill:#E1DC00;}
	.st1{fill:#BDBA00;}
	.st2{fill:#CDC900;}
	.st3{fill:#007963;}
	.st4{fill:#FFFFFF;}
	.st5{fill:#00947A;}
	.st6{fill:#006955;}
</style>
<g>
	<path class="st0" d="M52.6,33.3c-0.2-1.3-0.5-2.7-1-4c-2.4-7-7.9-12-14.4-14.2l1,11.2L13.7,53c0.6,0.7,1.3,1.3,2,1.8l25-27.2
		L52.6,33.3z"/>
	<path class="st0" d="M34.9,59.3c0.9-0.2,1.7-0.4,2.6-0.7c8.4-2.9,14-10.3,15.1-18.6L34.9,59.3z"/>
	<path class="st0" d="M22.4,15.3C11.9,18.9,5.7,29.5,7.3,40.2l24-26.2C28.4,13.8,25.3,14.2,22.4,15.3z"/>
	<path class="st1" d="M36.5,8.3L31.3,14c2,0.1,4,0.5,5.9,1.1L36.5,8.3z"/>
	<path class="st2" d="M37.2,15.2c-1.9-0.6-3.9-1-5.9-1.1l-24,26.2c0.2,1.4,0.5,2.9,1,4.3c1.2,3.4,3.1,6.2,5.4,8.6l24.5-26.7
		L37.2,15.2z"/>
	<path class="st1" d="M52.6,39.9l4.2-4.6l-4.3-2C52.9,35.5,52.9,37.8,52.6,39.9z"/>
	<path class="st2" d="M52.6,33.3l-11.8-5.6l-25,27.2c5.3,4.1,12.2,5.9,19.1,4.4l17.8-19.3C52.9,37.8,52.9,35.5,52.6,33.3z"/>
</g>
<g>
	<path class="st3" d="M28.3,65C16,65,5.2,55.6,2.5,42.6c-0.4-1.9-0.6-3.8-0.6-5.7h2.6c0,1.7,0.2,3.5,0.5,5.1
		c2.4,11.8,12.2,20.3,23.3,20.3V65z"/>
	<path class="st3" d="M32.1,65l-0.2-2.6c12.5-0.9,22.4-10.7,23.5-23.2l2.6,0.2C56.9,53.2,45.9,64,32.1,65"/>
	<path class="st3" d="M4.6,34.7L2,34.5c1.2-14,12.7-25,26.7-25.7c0.5,0,0.9,0,1.4,0v2.6c-0.4,0-0.8,0-1.2,0C16.1,12,5.7,22,4.6,34.7
		"/>
</g>
<g>
	<path class="st4" d="M13,44.3c-1.6,0.6-3.1,1.3-4.4,2.1c4.9,11.2,17.6,16.9,29.3,12.8c1.6-0.6,3.1-1.3,4.4-2.1
		C37.4,45.9,24.7,40.2,13,44.3z"/>
</g>
<g>
	<path class="st3" d="M65,16.2c0,0-2.6,29-33,31.3L65,16.2z"/>
	<path class="st2" d="M58.2,0.6c0,0,1.2,13.7-12.7,17.2L58.2,0.6z"/>
	<path class="st3" d="M40.6,1.3c0,0,9.3,17.6-7.4,29.8L40.6,1.3z"/>
</g>
<path class="st5" d="M32,47.6l33-31.3C65,16.2,35.4,17.8,32,47.6z"/>
<path class="st0" d="M45.5,17.8L58.2,0.6C58.2,0.6,44.5,3.8,45.5,17.8z"/>
<path class="st3" d="M10.6,47.9c0,0,17.5-7.6,28.2,9.3L10.6,47.9z"/>
<path class="st5" d="M38.8,57.2l-28.2-9.3C10.6,47.9,20.7,64.5,38.8,57.2z"/>
<path class="st5" d="M40.6,1.3c0,0-16.6,11.6-7.4,29.8L40.6,1.3z"/>
<polygon class="st4" points="25.4,43.2 20.3,43.2 20.3,38.1 22.8,36.8 25.4,38.1 "/>
<rect x="24.9" y="32.7" class="st4" width="4.6" height="13"/>
<polygon class="st4" points="18.8,44.5 14.6,44.5 14.6,40.3 16.7,39.2 18.8,40.3 "/>
<polygon class="st6" points="66,42.3 69.1,42.3 69.1,35.6 75.2,35.6 75.2,33.2 69.1,33.2 69.1,28.3 76.3,28.3 76.3,25.9 66,25.9 "/>
<polygon class="st6" points="89.3,25.9 86.2,25.9 86.2,42.3 95.8,42.3 95.8,39.7 89.3,39.7 "/>
<path class="st6" d="M117.9,28.1c-0.7-0.7-1.6-1.3-2.6-1.7c-1-0.4-2.1-0.6-3.4-0.6c-1.2,0-2.4,0.2-3.4,0.6c-1,0.4-1.9,1-2.6,1.7
	c-0.7,0.7-1.3,1.6-1.7,2.6c-0.4,1-0.6,2.1-0.6,3.3c0,1.2,0.2,2.3,0.6,3.3c0.4,1,1,1.9,1.7,2.6c0.7,0.7,1.6,1.3,2.6,1.7
	c1,0.4,2.1,0.6,3.4,0.6c1.2,0,2.4-0.2,3.4-0.6c1-0.4,1.9-1,2.6-1.7c0.7-0.7,1.3-1.6,1.7-2.6c0.4-1,0.6-2.1,0.6-3.3
	c0-1.2-0.2-2.3-0.6-3.3C119.2,29.7,118.6,28.9,117.9,28.1z M116.7,36.5c-0.2,0.7-0.6,1.3-1,1.8c-0.4,0.5-1,0.9-1.6,1.1
	c-0.6,0.3-1.4,0.4-2.1,0.4c-0.8,0-1.5-0.1-2.2-0.4c-0.6-0.3-1.2-0.6-1.6-1.1c-0.4-0.5-0.8-1.1-1-1.8c-0.2-0.7-0.4-1.5-0.4-2.4
	c0-0.9,0.1-1.7,0.4-2.4c0.2-0.7,0.6-1.3,1-1.8c0.4-0.5,1-0.9,1.6-1.1c0.6-0.3,1.4-0.4,2.2-0.4c0.8,0,1.5,0.1,2.1,0.4
	c0.6,0.3,1.2,0.6,1.6,1.1c0.4,0.5,0.8,1.1,1,1.8c0.2,0.7,0.4,1.5,0.4,2.4C117.1,35,117,35.8,116.7,36.5z"/>
<path class="st6" d="M137.9,35.3c0.6-0.2,1.1-0.4,1.5-0.7c0.4-0.3,0.8-0.7,1.1-1.1c0.3-0.4,0.5-0.8,0.7-1.3c0.2-0.5,0.2-1,0.2-1.6
	c0-0.7-0.1-1.3-0.4-1.9c-0.2-0.6-0.6-1.1-1.1-1.5c-0.5-0.4-1.2-0.7-2-1c-0.8-0.2-1.7-0.3-2.9-0.3h-5v16.3h3v-6.4h1.3
	c0.3,0,0.5,0,0.7,0.1c0.2,0.1,0.3,0.2,0.4,0.4l3.4,5.2c0.1,0.2,0.3,0.3,0.5,0.5c0.2,0.1,0.4,0.2,0.7,0.2h2.7l-4.1-6
	C138.6,35.8,138.3,35.5,137.9,35.3z M136.7,33.5c-0.4,0.1-0.9,0.2-1.5,0.2h-1.9v-5.4h1.9c1.1,0,2,0.2,2.5,0.7
	c0.5,0.4,0.8,1.1,0.8,1.9c0,0.4-0.1,0.8-0.2,1.1c-0.1,0.3-0.3,0.6-0.6,0.9C137.4,33.1,137.1,33.3,136.7,33.5z"/>
<rect x="152.8" y="25.9" class="st6" width="3" height="16.3"/>
<path class="st6" d="M175.7,34.2c-0.4-0.3-0.8-0.6-1.2-0.8c-0.5-0.2-0.9-0.4-1.4-0.6c-0.5-0.2-0.9-0.3-1.4-0.5s-0.9-0.3-1.2-0.5
	c-0.4-0.2-0.6-0.4-0.9-0.7c-0.2-0.3-0.3-0.6-0.3-1c0-0.3,0.1-0.6,0.2-0.8c0.1-0.3,0.3-0.5,0.5-0.6c0.2-0.2,0.5-0.3,0.8-0.4
	c0.3-0.1,0.7-0.2,1.1-0.2c0.5,0,0.9,0.1,1.2,0.2c0.3,0.1,0.6,0.2,0.9,0.4c0.3,0.1,0.5,0.3,0.7,0.4c0.2,0.1,0.4,0.2,0.5,0.2
	c0.2,0,0.3,0,0.4-0.1c0.1-0.1,0.2-0.2,0.3-0.3l0.7-1.4c-0.6-0.5-1.3-1-2.1-1.3c-0.8-0.3-1.7-0.5-2.7-0.5c-0.8,0-1.6,0.1-2.3,0.4
	c-0.7,0.3-1.2,0.6-1.7,1.1c-0.5,0.4-0.8,0.9-1,1.5c-0.2,0.6-0.4,1.1-0.4,1.7c0,0.7,0.1,1.4,0.3,1.9c0.2,0.5,0.5,0.9,0.9,1.3
	c0.4,0.3,0.8,0.6,1.2,0.8c0.5,0.2,0.9,0.4,1.4,0.5c0.5,0.2,0.9,0.3,1.4,0.4c0.5,0.1,0.9,0.3,1.2,0.5c0.4,0.2,0.6,0.4,0.9,0.7
	c0.2,0.3,0.3,0.6,0.3,1.1c0,0.8-0.2,1.4-0.7,1.8c-0.5,0.4-1.1,0.6-2,0.6c-0.6,0-1-0.1-1.5-0.2c-0.4-0.2-0.8-0.3-1.1-0.5
	c-0.3-0.2-0.6-0.4-0.8-0.5c-0.2-0.2-0.4-0.2-0.6-0.2c-0.1,0-0.3,0-0.4,0.1c-0.1,0.1-0.2,0.2-0.3,0.3l-0.9,1.5
	c0.3,0.3,0.7,0.6,1.1,0.9c0.4,0.3,0.8,0.5,1.3,0.7c0.5,0.2,0.9,0.3,1.5,0.4c0.5,0.1,1,0.2,1.5,0.2c0.9,0,1.7-0.1,2.4-0.4
	c0.7-0.3,1.3-0.7,1.8-1.1c0.5-0.5,0.9-1,1.1-1.7c0.3-0.6,0.4-1.3,0.4-2.1c0-0.7-0.1-1.3-0.3-1.7C176.4,34.9,176.1,34.5,175.7,34.2z"
	/>
<path class="st6" d="M190.4,29.9c0.5-0.5,1-0.9,1.7-1.1c0.6-0.3,1.3-0.4,2.1-0.4c0.7,0,1.2,0.1,1.6,0.2c0.4,0.1,0.8,0.3,1.1,0.4
	c0.3,0.2,0.5,0.3,0.7,0.4c0.2,0.1,0.4,0.2,0.5,0.2c0.2,0,0.3,0,0.4-0.1c0.1-0.1,0.2-0.1,0.2-0.2l1-1.4c-0.6-0.6-1.4-1.2-2.3-1.5
	c-0.9-0.4-2-0.6-3.2-0.6c-1.2,0-2.4,0.2-3.4,0.6c-1,0.4-1.9,1-2.6,1.7c-0.7,0.7-1.3,1.6-1.7,2.6c-0.4,1-0.6,2.1-0.6,3.4
	c0,1.2,0.2,2.3,0.5,3.4c0.4,1,0.9,1.9,1.6,2.6c0.7,0.7,1.5,1.3,2.5,1.7c1,0.4,2.1,0.6,3.3,0.6c1.4,0,2.5-0.2,3.5-0.7
	c1-0.4,1.8-1.1,2.4-1.9l-1.2-1.3c-0.1-0.1-0.3-0.2-0.4-0.2c-0.1,0-0.2,0-0.3,0.1c-0.1,0-0.2,0.1-0.2,0.2c-0.2,0.2-0.5,0.4-0.8,0.6
	c-0.3,0.2-0.5,0.3-0.8,0.4c-0.3,0.1-0.6,0.2-0.9,0.2c-0.3,0-0.7,0.1-1.1,0.1c-0.7,0-1.3-0.1-1.9-0.4c-0.6-0.3-1.1-0.6-1.6-1.1
	c-0.4-0.5-0.8-1.1-1.1-1.8c-0.3-0.7-0.4-1.5-0.4-2.4c0-0.9,0.1-1.7,0.4-2.4C189.6,31,189.9,30.4,190.4,29.9z"/>
<path class="st6" d="M222.8,28.1c-0.7-0.7-1.6-1.3-2.6-1.7c-1-0.4-2.1-0.6-3.4-0.6c-1.2,0-2.4,0.2-3.4,0.6c-1,0.4-1.9,1-2.6,1.7
	c-0.7,0.7-1.3,1.6-1.7,2.6c-0.4,1-0.6,2.1-0.6,3.3c0,1.2,0.2,2.3,0.6,3.3c0.4,1,1,1.9,1.7,2.6c0.7,0.7,1.6,1.3,2.6,1.7
	c1,0.4,2.1,0.6,3.4,0.6c1.2,0,2.4-0.2,3.4-0.6c1-0.4,1.9-1,2.6-1.7c0.7-0.7,1.3-1.6,1.7-2.6c0.4-1,0.6-2.1,0.6-3.3
	c0-1.2-0.2-2.3-0.6-3.3C224.1,29.7,223.5,28.9,222.8,28.1z M221.6,36.5c-0.2,0.7-0.6,1.3-1,1.8c-0.4,0.5-1,0.9-1.6,1.1
	c-0.6,0.3-1.4,0.4-2.2,0.4c-0.8,0-1.5-0.1-2.2-0.4c-0.6-0.3-1.2-0.6-1.6-1.1c-0.4-0.5-0.8-1.1-1-1.8c-0.2-0.7-0.4-1.5-0.4-2.4
	c0-0.9,0.1-1.7,0.4-2.4c0.2-0.7,0.6-1.3,1-1.8c0.4-0.5,1-0.9,1.6-1.1c0.6-0.3,1.4-0.4,2.2-0.4c0.8,0,1.5,0.1,2.2,0.4
	c0.6,0.3,1.2,0.6,1.6,1.1c0.4,0.5,0.8,1.1,1,1.8c0.2,0.7,0.4,1.5,0.4,2.4C222,35,221.9,35.8,221.6,36.5z"/>
<path class="st6" d="M245.3,27.4c-0.5-0.5-1.2-0.8-2-1.1c-0.8-0.3-1.7-0.4-2.8-0.4h-5.3v16.3h3v-5.7h2.3c1.1,0,2-0.1,2.8-0.4
	c0.8-0.3,1.4-0.6,2-1.1c0.5-0.5,0.9-1,1.2-1.7c0.3-0.7,0.4-1.4,0.4-2.2c0-0.8-0.1-1.5-0.4-2.1C246.2,28.4,245.8,27.8,245.3,27.4z
	 M243.5,32.4c-0.1,0.4-0.3,0.7-0.6,0.9c-0.3,0.3-0.6,0.5-1,0.6c-0.4,0.1-0.9,0.2-1.5,0.2h-2.3v-5.9h2.3c0.6,0,1,0.1,1.5,0.2
	c0.4,0.1,0.8,0.3,1,0.6c0.3,0.2,0.5,0.5,0.6,0.9c0.1,0.4,0.2,0.7,0.2,1.2C243.7,31.6,243.7,32,243.5,32.4z"/>
<polygon class="st6" points="256.7,42.3 267,42.3 267,39.8 259.8,39.8 259.8,35.2 265.5,35.2 265.5,32.9 259.8,32.9 259.8,28.3 
	267,28.3 267,25.9 256.7,25.9 "/>
</svg>
